<svg xmlns="http://www.w3.org/2000/svg" width="133.663" height="38.855" viewBox="0 0 133.663 38.855">
  <g id="Group_30750" data-name="Group 30750" transform="translate(-140 -22870.002)">
    <g id="profile-user" transform="translate(145 22866)">
      <path id="Path_23016" data-name="Path 23016" d="M19.429,0A19.428,19.428,0,1,0,38.858,19.429,19.429,19.429,0,0,0,19.429,0Zm0,5.809A6.426,6.426,0,1,1,13,12.236,6.427,6.427,0,0,1,19.429,5.81Zm0,27.967a14.259,14.259,0,0,1-9.285-3.424,2.738,2.738,0,0,1-.961-2.081,6.481,6.481,0,0,1,6.512-6.479h7.478a6.472,6.472,0,0,1,6.5,6.479,2.732,2.732,0,0,1-.96,2.081A14.254,14.254,0,0,1,19.425,33.778Z" transform="translate(-5 4)" fill="#101819"/>
    </g>
    <text id="By_CronJ" data-name="By CronJ" transform="translate(194.663 22895)" fill="#101819" font-size="17" font-family="Montserrat-Regular, Montserrat" letter-spacing="0.02em"><tspan x="0" y="0">By CronJ</tspan></text>
  </g>
</svg>
