<svg xmlns="http://www.w3.org/2000/svg" width="141.799" height="22" viewBox="0 0 141.799 22">
  <g id="Group_30749" data-name="Group 30749" transform="translate(-29 -17.98)">
    <text id="Check_out" data-name="Check out" transform="translate(78 34.98)" fill="#ff4591" font-size="18" font-family="Montserrat-SemiBold, Montserrat" font-weight="600" letter-spacing="0.02em"><tspan x="-48" y="0">Check out</tspan></text>
    <path id="Icon_ionic-ios-arrow-round-back" data-name="Icon ionic-ios-arrow-round-back" d="M25.326,11.6a1.242,1.242,0,0,0-.01,1.748l5.767,5.786H9.108a1.235,1.235,0,0,0,0,2.47H31.084l-5.777,5.786a1.25,1.25,0,0,0,.01,1.748,1.23,1.23,0,0,0,1.739-.01l7.829-7.886h0a1.387,1.387,0,0,0,.257-.39,1.179,1.179,0,0,0,.1-.475,1.238,1.238,0,0,0-.352-.865l-7.829-7.886A1.21,1.21,0,0,0,25.326,11.6Z" transform="translate(135.563 8.729)" fill="#ff4591"/>
  </g>
</svg>
