<svg xmlns="http://www.w3.org/2000/svg" width="51.071" height="55" viewBox="0 0 51.071 55">
  <g id="Calculator-App-Accounting-Application-Money" transform="translate(-6 -4)">
    <path id="Path_22865" data-name="Path 22865" d="M38,52h3.9v3.9H38Z" transform="translate(-0.551 -0.795)" fill="#ff4591"/>
    <path id="Path_22866" data-name="Path 22866" d="M50,46h3.9v3.9H50Z" transform="translate(-0.723 -0.725)" fill="#ff4591"/>
    <path id="Path_22867" data-name="Path 22867" d="M38,40h3.9v3.9H38Z" transform="translate(-0.551 -0.621)" fill="#ff4591"/>
    <path id="Path_22868" data-name="Path 22868" d="M50,40h3.9v3.9H50Z" transform="translate(-0.723 -0.621)" fill="#ff4591"/>
    <path id="Path_22869" data-name="Path 22869" d="M38,46h3.9v3.9H38Z" transform="translate(-0.551 -0.725)" fill="#ff4591"/>
    <path id="Path_22870" data-name="Path 22870" d="M21.974,55.949h3.9a.974.974,0,1,0,0-1.949h-3.9a.974.974,0,1,0,0,1.949Z" transform="translate(-0.253 -0.846)" fill="#ff4591"/>
    <path id="Path_22871" data-name="Path 22871" d="M6,47.076H31.333V24.666a2.932,2.932,0,0,1,2.923-2.923h6.82V12H6Z" transform="translate(0 -0.205)" fill="#ff4591"/>
    <path id="Path_22872" data-name="Path 22872" d="M19.795,37.589A7.795,7.795,0,1,0,12,29.795a7.795,7.795,0,0,0,7.795,7.795Zm.974-6.82H18.82a2.923,2.923,0,1,1,0-5.846v-.974h1.949v.974a2.923,2.923,0,0,1,2.923,2.923H21.743a.974.974,0,0,0-.974-.974H18.82a.974.974,0,1,0,0,1.949h1.949a2.923,2.923,0,1,1,0,5.846v.974H18.82v-.974A2.923,2.923,0,0,1,15.9,31.743h1.949a.974.974,0,0,0,.974.974h1.949a.974.974,0,0,0,0-1.949Z" transform="translate(-0.154 -0.265)" fill="#fff"/>
    <path id="Path_22873" data-name="Path 22873" d="M6,55.846a3.9,3.9,0,0,0,3.9,3.9H31.508a2.923,2.923,0,0,1-.175-.974V50H6Zm15.589-3.9h3.9a2.923,2.923,0,1,1,0,5.846h-3.9a2.923,2.923,0,1,1,0-5.846Z" transform="translate(0 -0.743)" fill="#821ffd"/>
    <path id="Path_22874" data-name="Path 22874" d="M44,52h3.9v3.9H44Z" transform="translate(-0.654 -0.795)" fill="#ff4591"/>
    <path id="Path_22875" data-name="Path 22875" d="M6,9.846H41.076V7.9a3.9,3.9,0,0,0-3.9-3.9H9.9A3.9,3.9,0,0,0,6,7.9Zm14.615-3.9h5.846V7.9H20.615Z" fill="#821ffd"/>
    <path id="Path_22876" data-name="Path 22876" d="M44,46h3.9v3.9H44Z" transform="translate(-0.654 -0.725)" fill="#ff4591"/>
    <path id="Path_22877" data-name="Path 22877" d="M57.384,58.1V24.974A.974.974,0,0,0,56.41,24H34.974a.974.974,0,0,0-.974.974V58.1a.974.974,0,0,0,.974.974H56.41A.974.974,0,0,0,57.384,58.1Zm-1.949-2.923a1.949,1.949,0,0,1-1.949,1.949H37.9a1.949,1.949,0,0,1-1.949-1.949V39.589A1.949,1.949,0,0,1,37.9,37.641H53.487a1.949,1.949,0,0,1,1.949,1.949Zm0-21.435a1.949,1.949,0,0,1-1.949,1.949H37.9a1.949,1.949,0,0,1-1.949-1.949V27.9A1.949,1.949,0,0,1,37.9,25.949H53.487A1.949,1.949,0,0,1,55.435,27.9Z" transform="translate(-0.312 -0.076)" fill="#821ffd"/>
    <path id="Path_22878" data-name="Path 22878" d="M38,33.846H53.589V28H38Zm10.718-3.9h1.949V31.9H48.718Zm-3.9,0h1.949V31.9H44.82Zm-3.9,0h1.949V31.9H40.923Z" transform="translate(-0.415 -0.406)" fill="#ff4591"/>
    <path id="Path_22879" data-name="Path 22879" d="M50,52h3.9v3.9H50Z" transform="translate(-0.723 -0.795)" fill="#ff4591"/>
    <path id="Path_22880" data-name="Path 22880" d="M44,40h3.9v3.9H44Z" transform="translate(-0.654 -0.621)" fill="#ff4591"/>
  </g>
</svg>
