<svg xmlns="http://www.w3.org/2000/svg" width="70.569" height="70.293" viewBox="0 0 70.569 70.293">
  <g id="web-development_6_" data-name="web-development (6)" transform="translate(0 -1)">
    <path id="Path_28609" data-name="Path 28609" d="M70.569,17.54V7.2a6.209,6.209,0,0,0-6.2-6.2H6.2A6.209,6.209,0,0,0,0,7.2V17.54ZM47.689,9.27h12.4a2.067,2.067,0,1,1,0,4.135h-12.4a2.067,2.067,0,1,1,0-4.135Zm-20.675,0a2.067,2.067,0,1,1-2.067,2.067A2.067,2.067,0,0,1,27.015,9.27Zm-8.27,0a2.067,2.067,0,1,1-2.067,2.067A2.067,2.067,0,0,1,18.745,9.27Zm-8.27,0a2.067,2.067,0,1,1-2.067,2.067A2.067,2.067,0,0,1,10.475,9.27Z" fill="#821ffd"/>
    <path id="Path_28610" data-name="Path 28610" d="M0,151v43.416a6.209,6.209,0,0,0,6.2,6.2H64.367a6.209,6.209,0,0,0,6.2-6.2V151Zm24.171,31.4a2.067,2.067,0,1,1-2.583,3.229l-10.337-8.27a2.068,2.068,0,0,1,0-3.229l10.337-8.27a2.067,2.067,0,1,1,2.583,3.229l-8.319,6.656Zm19.216-20.313-12.4,28.944a2.067,2.067,0,0,1-3.8-1.629l12.4-28.944a2.067,2.067,0,0,1,3.8,1.629Zm15.931,15.272-10.337,8.27A2.067,2.067,0,1,1,46.4,182.4l8.319-6.656L46.4,169.087a2.067,2.067,0,1,1,2.583-3.229l10.337,8.27A2.068,2.068,0,0,1,59.318,177.356Z" transform="translate(0 -129.326)" fill="#ff4591"/>
  </g>
</svg>
