<svg xmlns="http://www.w3.org/2000/svg" width="71.483" height="70.281" viewBox="0 0 71.483 70.281">
  <g id="Page-1" transform="translate(-0.523)">
    <g id="_007---AR-Phone-Camera" data-name="007---AR-Phone-Camera" transform="translate(0.523)">
      <path id="Shape" d="M72.006,29.244a3.765,3.765,0,0,1-1.632,3.1L38.4,54.395a3.754,3.754,0,0,1-4.267,0L2.151,32.344a3.765,3.765,0,0,1,0-6.2L13.672,18.2v3.037L3.582,28.215a1.231,1.231,0,0,0-.552,1.029,1.255,1.255,0,0,0,.54,1.029L35.547,52.324a1.245,1.245,0,0,0,1.431,0L68.943,30.273a1.235,1.235,0,0,0,0-2.058L58.853,21.25V18.2l11.521,7.944A3.765,3.765,0,0,1,72.006,29.244Z" transform="translate(-0.523 4.641)" fill="#821ffd"/>
      <path id="Shape-2" data-name="Shape" d="M15.51,53.142a4.969,4.969,0,0,1-2.51-.7V54.4a2.51,2.51,0,0,0,2.51,2.51H50.651a2.51,2.51,0,0,0,2.51-2.51V52.444a4.969,4.969,0,0,1-2.51.7Z" transform="translate(2.659 13.375)" fill="#ff4591"/>
      <path id="Shape-3" data-name="Shape" d="M22,28.14l7.53,4.706V24.511L22,19.805Z" transform="translate(4.955 5.051)" fill="#821ffd"/>
      <path id="Shape-4" data-name="Shape" d="M24.749,2.51H37.174A2.51,2.51,0,0,0,39,1.717L40.614,0h-19.3l1.609,1.717A2.518,2.518,0,0,0,24.749,2.51Z" transform="translate(4.778)" fill="#ff4591"/>
      <path id="Shape-5" data-name="Shape" d="M30.559,14.179l-7.672,4.8,7.672,4.8,7.672-4.8Z" transform="translate(5.181 3.616)" fill="#821ffd"/>
      <path id="Shape-6" data-name="Shape" d="M30,32.846l7.53-4.706V19.805L30,24.511Z" transform="translate(6.995 5.051)" fill="#821ffd"/>
      <path id="Shape-7" data-name="Shape" d="M50.651,0H46.17L42.957,3.439A5.051,5.051,0,0,1,39.293,5.02H26.868A5.072,5.072,0,0,1,23.2,3.439L19.99,0H15.51A2.518,2.518,0,0,0,13,2.51V40.562L33.08,54.418l20.08-13.855V2.51A2.518,2.518,0,0,0,50.651,0ZM37.9,12.111a1.255,1.255,0,0,1,1.744-.326l2.41,1.669a1.255,1.255,0,0,1,.314,1.744,1.235,1.235,0,0,1-1.029.54,1.269,1.269,0,0,1-.715-.226l-2.41-1.657A1.264,1.264,0,0,1,37.9,12.111ZM31.336,8.459l1.029-.7a1.246,1.246,0,0,1,1.431,0l1.029.7a1.255,1.255,0,0,1-.715,2.3,1.23,1.23,0,0,1-.7-.226L33.08,10.3l-.326.226a1.255,1.255,0,1,1-1.418-2.071Zm-7.229,5,2.41-1.669a1.258,1.258,0,0,1,1.431,2.071l-2.41,1.657a1.269,1.269,0,0,1-.715.226,1.235,1.235,0,0,1-1.029-.54,1.255,1.255,0,0,1,.314-1.744Zm-3.389,5.384-2.41,1.657a1.253,1.253,0,1,1-1.431-2.058l2.41-1.669a1.258,1.258,0,0,1,1.431,2.071ZM44.376,33.886a1.27,1.27,0,0,1-.59,1.067l-10.04,6.275a1.269,1.269,0,0,1-1.33,0l-10.04-6.275a1.27,1.27,0,0,1-.59-1.067V22.59a1.27,1.27,0,0,1,.59-1.067l10.04-6.275a1.269,1.269,0,0,1,1.33,0l10.04,6.275a1.27,1.27,0,0,1,.59,1.067Zm5.221-13.7a1.255,1.255,0,0,1-1.744.314l-2.41-1.657a1.258,1.258,0,0,1,1.431-2.071l2.41,1.669A1.255,1.255,0,0,1,49.6,20.181ZM36.645,61.107a6.3,6.3,0,0,1-7.129,0L13,49.724V61.5a2.518,2.518,0,0,0,2.51,2.51H50.651a2.518,2.518,0,0,0,2.51-2.51V49.712Z" transform="translate(2.659)" fill="#ff4591"/>
    </g>
  </g>
</svg>
