<svg xmlns="http://www.w3.org/2000/svg" width="74.339" height="70.371" viewBox="0 0 74.339 70.371">
  <g id="ui-design_3_" data-name="ui-design (3)" transform="translate(0 -13.668)">
    <path id="Path_28840" data-name="Path 28840" d="M0,343.4v7.7a2.178,2.178,0,0,0,2.178,2.178H72.161a2.178,2.178,0,0,0,2.178-2.178v-7.7Z" transform="translate(0 -281.859)" fill="#821ffd"/>
    <path id="Path_28841" data-name="Path 28841" d="M74.339,57.188V15.846a2.178,2.178,0,0,0-2.178-2.178H2.178A2.178,2.178,0,0,0,0,15.846V57.188ZM39.987,38.529c0,1.97-.749,4.7-4.318,6.494a8.155,8.155,0,0,1-3.7.858h-.012a7.731,7.731,0,0,1-4.221-1.215,7.018,7.018,0,0,1-3.6-6.125V27.152a2.178,2.178,0,0,1,4.356,0V38.541A2.689,2.689,0,0,0,30.078,41a3.4,3.4,0,0,0,1.881.53h.007a3.79,3.79,0,0,0,1.745-.393c1.7-.858,1.921-1.842,1.921-2.6V27.152a2.178,2.178,0,1,1,4.356,0ZM50.209,43.7a2.178,2.178,0,1,1-4.356,0V27.152a2.178,2.178,0,0,1,4.356,0Z" fill="#ff4591"/>
    <path id="Path_28842" data-name="Path 28842" d="M181.094,441.464v3.9h-.627a2.178,2.178,0,1,0,0,4.356h18.211a2.178,2.178,0,0,0,0-4.356h-.627v-3.9Z" transform="translate(-152.403 -365.683)" fill="#821ffd"/>
  </g>
</svg>
