<svg xmlns="http://www.w3.org/2000/svg" width="40.474" height="70.295" viewBox="0 0 40.474 70.295">
  <g id="app-development_7_" data-name="app-development (7)" transform="translate(-10.037 -2.5)">
    <path id="Path_28611" data-name="Path 28611" d="M46.678,25.262v34.8H13.87V12.934H46.678l.005,13.191h3.828V6.871A4.428,4.428,0,0,0,46.129,2.5H14.408a4.383,4.383,0,0,0-4.371,4.371V68.423a4.376,4.376,0,0,0,4.371,4.371H46.129a4.392,4.392,0,0,0,4.382-4.371V25.262H46.678ZM27.479,6.619h5.58a1.1,1.1,0,1,1,0,2.2h-5.58a1.1,1.1,0,1,1,0-2.2ZM33.9,67.94H26.633a1.1,1.1,0,1,1,0-2.2H33.9a1.1,1.1,0,1,1,0,2.2Z" fill="#ff4591"/>
    <g id="Group_31051" data-name="Group 31051" transform="translate(17.031 27.32)">
      <path id="Path_28612" data-name="Path 28612" d="M34.28,28.459a1.1,1.1,0,0,0,1.553-.008l4.59-4.633a1.1,1.1,0,0,0,0-1.546l-4.59-4.633a1.1,1.1,0,0,0-1.561,1.546l3.824,3.86-3.824,3.86a1.1,1.1,0,0,0,.008,1.553Z" transform="translate(-14.262 -13.834)" fill="#821ffd" stroke="#821ffd" stroke-width="1"/>
      <path id="Path_28613" data-name="Path 28613" d="M22.767,17.632a1.1,1.1,0,0,0-1.553.008l-4.59,4.633a1.1,1.1,0,0,0,0,1.546l4.59,4.633a1.1,1.1,0,0,0,1.561-1.546l-3.824-3.86,3.824-3.86a1.1,1.1,0,0,0-.008-1.553Z" transform="translate(-16.306 -13.834)" fill="#821ffd" stroke="#821ffd" stroke-width="1"/>
      <path id="Path_28614" data-name="Path 28614" d="M30.435,14.89,23.988,31.113a1.1,1.1,0,1,0,2.041.811L32.476,15.7a1.1,1.1,0,1,0-2.041-.811Z" transform="translate(-15.425 -14.196)" fill="#821ffd" stroke="#821ffd" stroke-width="1"/>
    </g>
  </g>
</svg>
