<svg id="software_2_" data-name="software (2)" xmlns="http://www.w3.org/2000/svg" width="70.15" height="70.15" viewBox="0 0 70.15 70.15">
  <path id="Path_28626" data-name="Path 28626" d="M129.221,452v4.11h-6.166a2.055,2.055,0,1,0,0,4.11h32.883a2.055,2.055,0,0,0,0-4.11h-6.166V452Z" transform="translate(-104.422 -390.071)" fill="#821ffd"/>
  <path id="Path_28627" data-name="Path 28627" d="M68.095,61H63.848V95.938a6.172,6.172,0,0,1-6.166,6.166H12.468A6.172,6.172,0,0,1,6.3,95.938V61H2.055A2.054,2.054,0,0,0,0,63.055v45.351a2.054,2.054,0,0,0,2.055,2.055h66.04a2.054,2.054,0,0,0,2.055-2.055V63.055A2.054,2.054,0,0,0,68.095,61Z" transform="translate(0 -52.642)" fill="#ff4591"/>
  <path id="Path_28628" data-name="Path 28628" d="M125.324,2.055A2.054,2.054,0,0,0,123.269,0H78.055A2.054,2.054,0,0,0,76,2.055V16.578h49.324Zm-41.1,8.358a2.055,2.055,0,1,1,2.055-2.055A2.055,2.055,0,0,1,84.221,10.413Zm8.221,0A2.055,2.055,0,1,1,94.5,8.358,2.055,2.055,0,0,1,92.441,10.413Zm8.221,0a2.055,2.055,0,1,1,2.055-2.055A2.055,2.055,0,0,1,100.662,10.413Z" transform="translate(-65.587)" fill="#ff4591"/>
  <path id="Path_28629" data-name="Path 28629" d="M78.055,175.662h45.214a2.054,2.054,0,0,0,2.055-2.055V151H76v22.607A2.054,2.054,0,0,0,78.055,175.662Zm29.6-16.853a2.054,2.054,0,1,1,2.465-3.287l8.221,6.166a2.053,2.053,0,0,1,0,3.287l-8.221,6.166a2.054,2.054,0,1,1-2.465-3.287l6.029-4.522ZM96.656,168.846l4.11-12.331a2.056,2.056,0,0,1,3.9,1.3l-4.11,12.331a2.056,2.056,0,0,1-3.9-1.3Zm-13.668-7.159,8.221-6.166a2.054,2.054,0,1,1,2.465,3.287l-6.029,4.522,6.029,4.522a2.054,2.054,0,1,1-2.465,3.287l-8.221-6.166a2.053,2.053,0,0,1,0-3.287Z" transform="translate(-65.587 -130.311)" fill="#821ffd"/>
</svg>
