<svg xmlns="http://www.w3.org/2000/svg" width="70.867" height="68.584" viewBox="0 0 70.867 68.584">
  <g id="coding_9_" data-name="coding (9)" transform="translate(0 -8.25)">
    <path id="Path_28606" data-name="Path 28606" d="M151.233,443.164h-5.121V438.25H121.2v4.913h-5.121a2.076,2.076,0,0,0,0,4.152h35.157a2.076,2.076,0,1,0,0-4.152Z" transform="translate(-98.221 -370.483)" fill="#821ffd"/>
    <path id="Path_28607" data-name="Path 28607" d="M0,352.4a4.157,4.157,0,0,0,4.152,4.152H66.715a4.157,4.157,0,0,0,4.152-4.152V348.25H0Z" transform="translate(0 -292.94)" fill="#821ffd"/>
    <path id="Path_28608" data-name="Path 28608" d="M66.715,8.25H4.152A4.157,4.157,0,0,0,0,12.4V51.158H70.867V12.4A4.157,4.157,0,0,0,66.715,8.25ZM49.277,26.936A2.076,2.076,0,0,1,47.2,29.012H24.222a2.076,2.076,0,1,1,0-4.152H47.2A2.076,2.076,0,0,1,49.277,26.936ZM18.686,16.555h8.72a2.076,2.076,0,1,1,0,4.152h-8.72a2.076,2.076,0,1,1,0-4.152Zm-8.3,29.067a2.076,2.076,0,1,1,2.076-2.076A2.08,2.08,0,0,1,10.381,45.622Zm0-8.3a2.076,2.076,0,1,1,2.076-2.076A2.08,2.08,0,0,1,10.381,37.317Zm0-8.3a2.076,2.076,0,1,1,2.076-2.076A2.08,2.08,0,0,1,10.381,29.012Zm0-8.3a2.076,2.076,0,1,1,2.076-2.076A2.08,2.08,0,0,1,10.381,20.707ZM27.406,45.622h-8.72a2.076,2.076,0,1,1,0-4.152h8.72a2.076,2.076,0,1,1,0,4.152Zm6.505-8.3H24.222a2.076,2.076,0,0,1,0-4.152h9.689a2.076,2.076,0,1,1,0,4.152Zm14.326,0H41.062a2.076,2.076,0,1,1,0-4.152h7.174a2.076,2.076,0,0,1,0,4.152Zm12.25,0H55.5a2.076,2.076,0,1,1,0-4.152h4.983a2.076,2.076,0,0,1,0,4.152Zm0-8.3H55.5a2.076,2.076,0,1,1,0-4.152h4.983a2.076,2.076,0,0,1,0,4.152Z" fill="#ff4591"/>
  </g>
</svg>
