<svg xmlns="http://www.w3.org/2000/svg" xmlns:xlink="http://www.w3.org/1999/xlink" width="1339" height="424.25" viewBox="0 0 1339 424.25">
  <defs>
    <clipPath id="clip-path">
      <rect id="Rectangle_1559" data-name="Rectangle 1559" width="645" height="400" transform="translate(744 8069)" fill="#fff" stroke="#707070" stroke-width="1"/>
    </clipPath>
  </defs>
  <g id="Group_15188" data-name="Group 15188" transform="translate(-50.666 -6054.648)">
    <path id="Path_12271" data-name="Path 12271" d="M0,0H1339V423.914H0Z" transform="translate(50.666 6054.984)" fill="#ff4591"/>
    <g id="Mask_Group_134" data-name="Mask Group 134" transform="translate(0.334 -2014.352)" clip-path="url(#clip-path)">
      <g id="Group_12669" data-name="Group 12669" transform="translate(-900.204 129.075) rotate(-6)">
        <g id="Group_12668" data-name="Group 12668" transform="matrix(-0.951, -0.309, 0.309, -0.951, 1882.923, 8670.606)">
          <g id="Group_12667" data-name="Group 12667" transform="translate(4.129 0.003)">
            <path id="Path_12272" data-name="Path 12272" d="M0,166.5s17,2.072,29,8.07S69.614,205.956,75.612,205.5s27.69-4.616,27.69-4.616l-8.766-26.308s43.38-26.3,56.3-36S204.37,85.5,206.217,74.89s-1.386-23.074-6.463-27.229-23.535,4.155-23.535,4.155a23.073,23.073,0,0,0-4.155-18.924c-6.919-9.227-23.074-6-23.074-6s-1.382-15.229-8.766-18-24,5.537-24,5.537S111.211,1.512,105.179.13,82.075,8.9,82.075,8.9,18.993,56.315,2.377,64.16c0,0,4.66,15.579,5.894,51.442C8.764,129.928,0,166.5,0,166.5Z" transform="translate(648.524 0)" fill="#fff"/>
            <path id="Union_46" data-name="Union 46" d="M45.782,187.076c-11.651-3.382-27.51-8.387-30.09-11.253C11.541,171.212,0,134.291,0,134.291c31.684-12.857,43.263,17.229,43.38,17.534V0L181.62,57.153l-5.046,11.389-5.9,15.119-5.836,23.71-3.495,22.441-1.4,33.012-30.866-4.993s-46,30-58.678,32.771a28.361,28.361,0,0,1-6.07.624C56.724,191.224,49.422,188.613,45.782,187.076Z" transform="translate(695.983 14.901)" fill="none" stroke="#fff" stroke-width="2"/>
            <path id="Path_12275" data-name="Path 12275" d="M10.807,0c-.333.013-.542,1.3-1.322,3.242A57.943,57.943,0,0,1,5.773,10.61C2.484,16.236-.464,20.741.061,21.134c.452.346,4.228-3.583,7.636-9.415a27.445,27.445,0,0,0,3.3-8.041c.452-2.248.094-3.7-.188-3.677" transform="translate(753.94 14.433)" fill="#ff4591"/>
            <path id="Path_12276" data-name="Path 12276" d="M19.4.011c-.6-.311-4.21,6.318-9.308,13.941C5.041,21.635-.368,26.766.02,27.244c.35.512,6.7-4.125,11.91-12.047C17.169,7.361,19.89.245,19.4.011" transform="translate(776.028 23.398)" fill="#ff4591"/>
            <path id="Path_12277" data-name="Path 12277" d="M18.356,0C17.7-.16,15.643,7.826,10.541,16.439,5.524,25.1-.436,30.8.025,31.293c.32.456,7.192-4.71,12.435-13.732C17.767,8.581,18.91.058,18.356,0" transform="translate(806.703 50.043)" fill="#ff4591"/>
            <path id="Path_12278" data-name="Path 12278" d="M.277,24.918c.58.124,2.167-5.371,2.466-12.371C3.063,5.546,1.971-.068,1.382,0,.751.065.841,5.632.521,12.449.235,19.261-.345,24.8.277,24.918" transform="translate(803.153 82.725)" fill="#ff4591"/>
            <path id="Path_12279" data-name="Path 12279" d="M2.6,58.856S-4.328,42.705,4.439,37.629s19.384-3.694,19.384-3.694-.461-9.692,12-16.151,15.69,0,15.69,0S52.9,1.629,67.2.247,86.545,3.774,86.545,3.774l-6.42,9.543s8.31,16.927,1.847,24.312S64.9,44.087,64.9,44.087s2.824,14.995-5.4,19.171c-15.293,7.764-21.82-6.71-21.82-6.71S36.745,72.98,24.745,72.609A26.715,26.715,0,0,1,6.286,64.854Z" transform="translate(646.779 3.574)" fill="none" stroke="#fff" stroke-width="2"/>
            <path id="Path_12280" data-name="Path 12280" d="M13.646,23.114c.542-.269-1.723-5.891-5.5-12.307S.554-.328.059.018C-.457.368,2.5,5.581,6.227,11.933s6.86,11.463,7.418,11.181" transform="translate(670.8 37.008)" fill="#fff"/>
            <path id="Path_12281" data-name="Path 12281" d="M15.946,23.289c.533-.252-1.817-6.25-6.292-12.768C5.2,3.985.465-.383.038.027-.431.457,3.477,5.393,7.824,11.775c4.368,6.361,7.551,11.8,8.122,11.514" transform="translate(696.023 22.295)" fill="#fff"/>
            <path id="Path_12283" data-name="Path 12283" d="M5.976,0c-.149.047.269,2.052,1.156,5.627.93,3.566,2.082,8.775,3.3,15.234,1.25,6.459,2.325,14.218,3.1,22.87a243.323,243.323,0,0,1,.606,28.223,230.077,230.077,0,0,1-7.952,50.615C4.44,128.908,2.866,134,1.642,137.479.468,140.968-.12,142.935.02,142.99s1.007-1.8,2.432-5.213A153.432,153.432,0,0,0,7.7,123.009a206.408,206.408,0,0,0,8.66-50.961,223.672,223.672,0,0,0-.789-28.5,199.351,199.351,0,0,0-3.6-22.993A150.281,150.281,0,0,0,7.964,5.4C6.82,1.874,6.121-.046,5.976,0" transform="translate(585.584 28.899)" fill="#fff" stroke="#fff" stroke-width="1"/>
            <path id="Path_12284" data-name="Path 12284" d="M214.588,483.635s.832-1.715,2.333-5.1c1.51-3.443,3.716-8.468,6.6-15.029,5.759-13.263,14.193-32.694,25-57.594C270.088,355.96,301.106,284.118,339,196.33l-.853.533c9.756.452,18.928-3.788,27.4-8.4,8.532-4.7,16.786-10.166,25.847-14.3,8.95-4.547,19.111-5.6,29.409-6.843,10.289-1.216,20.8-2.12,31.453-3.046,42.638-3.524,87.818-6.3,134.863-8.924l-.09,0c18.378.584,38.261,1.22,58.434,1.868l.734.021.286-.661c9.014-20.63,12.794-43.832,11.7-67.065a219.522,219.522,0,0,0-14.342-69.048l-.213-.546-.614-.115c-11.77-2.176-24.427-4.513-37.156-6.864L565.187,5.438C551.7,2.81,537.949,1.8,524.478,1.245,497.445.012,470.8-.09,444.628.046S392.75.8,367.59,1.731q-37.741,1.331-73.766,4.023c-12,.857-23.825,2.014-35.484,3.289-11.663,1.536-23.1,2.572-34.362,5.7A59.849,59.849,0,0,0,209.1,23.334a125.521,125.521,0,0,0-12.64,11.083,273.457,273.457,0,0,0-21.7,24.465c-26.508,33.7-47.288,67.837-65.862,99.076C72.154,220.757,45.628,273.347,27.417,309.7,18.361,327.9,11.505,342.126,6.9,351.789s-6.9,14.8-6.9,14.8.7-1.224,1.915-3.681q1.856-3.763,5.392-10.921c4.8-9.628,11.829-23.74,20.882-41.9C46.635,273.863,73.365,221.4,110.257,158.76,128.895,127.6,149.742,93.538,176.2,60.034a271.34,271.34,0,0,1,21.59-24.26,123.162,123.162,0,0,1,12.469-10.9,57.854,57.854,0,0,1,14.385-8.289c10.661-2.948,22.4-4.07,33.918-5.554C270.191,9.777,282,8.638,293.977,7.793q35.93-2.694,73.689-3.942c25.143-.909,50.828-1.5,76.974-1.63s52.774,0,79.73,1.233c13.51.567,26.986,1.553,40.407,4.163q20.214,3.737,40.68,7.517c12.729,2.346,25.391,4.684,37.165,6.86l-.828-.661a217.629,217.629,0,0,1,14.193,68.276c1.084,22.968-2.645,45.816-11.48,66.083l1.024-.636c-20.174-.631-40.057-1.25-58.435-1.826H587c-47.062,2.666-92.242,5.49-134.914,9.082-10.669.943-21.18,1.86-31.512,3.1-5.17.584-10.285,1.254-15.37,2.218-5.153.776-9.974,2.781-14.589,4.829-9.236,4.245-17.507,9.748-25.945,14.419-8.378,4.586-17.277,8.647-26.427,8.229l-.619-.03-.239.559c-37.6,87.912-68.379,159.861-89.772,209.888C236.993,430.5,228.7,449.994,223.043,463.3c-2.777,6.6-4.906,11.663-6.36,15.127-1.425,3.421-2.095,5.2-2.095,5.2" transform="translate(0 19.609)" fill="#fff" stroke="#fff" stroke-width="1"/>
            <path id="Path_12285" data-name="Path 12285" d="M180.567,18.052c-.149-.137-2.184,2.018-6.083,5.631A116.334,116.334,0,0,1,156.55,37.206a115.9,115.9,0,0,1-30.437,13.177,113.059,113.059,0,0,1-40.3,3.532,113.052,113.052,0,0,1-38.82-11.441A115.968,115.968,0,0,1,19.759,23.53a116.426,116.426,0,0,1-14.9-16.8C1.753,2.409.183-.1.008,0A8.1,8.1,0,0,0,.959,1.936c.725,1.2,1.647,3.089,3.187,5.281a103.311,103.311,0,0,0,14.53,17.448A113.2,113.2,0,0,0,46.063,44.3,112.479,112.479,0,0,0,85.586,56.126a112.466,112.466,0,0,0,41.072-3.767,113.074,113.074,0,0,0,30.727-13.826,103.165,103.165,0,0,0,17.7-14.227c1.95-1.843,3.225-3.507,4.172-4.547a7.971,7.971,0,0,0,1.314-1.706" transform="translate(17.641 507.772)" fill="#263238"/>
            <path id="Path_12286" data-name="Path 12286" d="M17.96,47.807c.576-.213-2.965-11.091-7.909-24.29S.636-.214.061,0,3.03,11.09,7.97,24.293,17.384,48.02,17.96,47.807" transform="translate(319.755 167.534)" fill="#263238"/>
            <path id="Path_12287" data-name="Path 12287" d="M847.32,551.376c-2.606-5.5-204.265-515.674-294.3-536.654S181.889-2.046,127.278,10.192,12.173,41.452,12.173,41.452s-30.694,64.525,5.4,159.31l101.515,9.569s182.132,30.956,211.657,40.523,55.022,42.35,81.59,40.6L571.315,729.7s103.318,113.64,177.116,78.674,120.519-211.435,98.89-257" transform="matrix(0.966, 0.259, -0.259, 0.966, 892.525, 2.782)" fill="none" stroke="rgba(255,255,255,0.47)" stroke-width="2.5"/>
          </g>
          <rect id="Rectangle_1558" data-name="Rectangle 1558" width="1561.503" height="564.386" transform="translate(0 0)" fill="none"/>
        </g>
        <g id="Ellipse_326" data-name="Ellipse 326" transform="translate(1321.966 8319.186)" fill="none" stroke="#fff" stroke-width="2.5">
          <circle cx="10.346" cy="10.346" r="10.346" stroke="none"/>
          <circle cx="10.346" cy="10.346" r="9.096" fill="none"/>
        </g>
      </g>
    </g>
  </g>
</svg>
