<svg xmlns="http://www.w3.org/2000/svg" width="65.698" height="70" viewBox="0 0 65.698 70">
  <g id="Group_31196" data-name="Group 31196" transform="translate(-227.889 -3982.411)">
    <path id="hands" d="M37.217,31.031A10.329,10.329,0,1,1,47.577,20.7,10.357,10.357,0,0,1,37.217,31.031Zm0-23.065A12.736,12.736,0,1,0,49.991,20.7,12.772,12.772,0,0,0,37.217,7.966Zm9.709,27.182a1.208,1.208,0,0,1,1.16-.1l2.849,1.261,1.935-1.929L51.6,31.533a1.2,1.2,0,0,1,.1-1.154,17.2,17.2,0,0,0,2.622-6.3,1.2,1.2,0,0,1,.747-.89l.826-.32,2.085-.8V19.341L55.08,18.226a1.2,1.2,0,0,1-.752-.892,17.208,17.208,0,0,0-2.622-6.308,1.2,1.2,0,0,1-.1-1.156L52.87,7.025,50.935,5.1,48.085,6.36a1.21,1.21,0,0,1-1.164-.1A17.253,17.253,0,0,0,40.6,3.647,1.206,1.206,0,0,1,39.7,2.9l-1.121-2.9H35.85l-1.117,2.9a1.206,1.206,0,0,1-.9.752A17.244,17.244,0,0,0,27.51,6.26a1.21,1.21,0,0,1-1.166.1L23.5,5.1,21.56,7.025l1.268,2.839a1.2,1.2,0,0,1-.1,1.163A17.215,17.215,0,0,0,20.1,17.336a1.2,1.2,0,0,1-.752.89l-2.906,1.115v2.725l2.911,1.118a1.2,1.2,0,0,1,.747.89,17.139,17.139,0,0,0,2.626,6.307,1.2,1.2,0,0,1,.1,1.163l-1.267,2.835L23.5,36.308l2.853-1.262a1.211,1.211,0,0,1,1.16.1,17.314,17.314,0,0,0,6.328,2.614,1.206,1.206,0,0,1,.895.75l1.118,2.9h2.734l1.121-2.9a1.206,1.206,0,0,1,.893-.745,17.319,17.319,0,0,0,6.328-2.614ZM27.834,54.891c0-2.1-.212-4.234-1.8-5.658-.529-.475-1.165-1.01-1.9-1.628a58.054,58.054,0,0,1-6.952-6.572,2,2,0,0,0-2.742,0,1.947,1.947,0,0,0-.286,2.388l.328.4,8.253,8.231a1.205,1.205,0,0,1-1.707,1.7l-8.3-8.274h0c-.2-.2-1.074-1.306-1.074-1.306a8.348,8.348,0,0,1-2.009-5.5L9.693,25.8c.014-3.574-1.736-5.724-3.413-5.751H7a2.373,2.373,0,0,0-2.329,1.931L4,45.692a6.21,6.21,0,0,0,1.92,4.735L16.685,61.156a1.2,1.2,0,0,1,.354.851v7.988H27.814Z" transform="translate(223.889 3982.416)" fill="#ff4591" fill-rule="evenodd"/>
    <path id="hands-2" data-name="hands" d="M4,60.932c0-2.068.208-4.174,1.769-5.578.52-.469,1.145-1,1.869-1.6A57.128,57.128,0,0,0,14.47,47.27a1.962,1.962,0,0,1,2.695,0,1.924,1.924,0,0,1,.281,2.354l-.322.4-8.11,8.115a1.186,1.186,0,1,0,1.678,1.677l8.153-8.157h0c.2-.2,1.056-1.288,1.056-1.288a8.246,8.246,0,0,0,1.974-5.42l-.046-12.7c-.013-3.524,1.706-5.643,3.355-5.669h-.713a2.334,2.334,0,0,1,2.289,1.9l.66,23.379a6.132,6.132,0,0,1-1.887,4.668L14.957,67.108a1.186,1.186,0,0,0-.348.839v7.875H4.02Z" transform="translate(266.164 3976.589)" fill="#ff4591" fill-rule="evenodd"/>
    <path id="hands-3" data-name="hands" d="M37.217,31.031A10.329,10.329,0,1,1,47.577,20.7,10.357,10.357,0,0,1,37.217,31.031Zm0-23.065A12.736,12.736,0,1,0,49.991,20.7,12.772,12.772,0,0,0,37.217,7.966Zm9.709,27.182a1.208,1.208,0,0,1,1.16-.1l2.849,1.261,1.935-1.929L51.6,31.533a1.2,1.2,0,0,1,.1-1.154,17.2,17.2,0,0,0,2.622-6.3,1.2,1.2,0,0,1,.747-.89l.826-.32,2.085-.8V19.341L55.08,18.226a1.2,1.2,0,0,1-.752-.892,17.208,17.208,0,0,0-2.622-6.308,1.2,1.2,0,0,1-.1-1.156L52.87,7.025,50.935,5.1,48.085,6.36a1.21,1.21,0,0,1-1.164-.1A17.253,17.253,0,0,0,40.6,3.647,1.206,1.206,0,0,1,39.7,2.9l-1.121-2.9H35.85l-1.117,2.9a1.206,1.206,0,0,1-.9.752A17.244,17.244,0,0,0,27.51,6.26a1.21,1.21,0,0,1-1.166.1L23.5,5.1,21.56,7.025l1.268,2.839a1.2,1.2,0,0,1-.1,1.163A17.215,17.215,0,0,0,20.1,17.336a1.2,1.2,0,0,1-.752.89l-2.906,1.115v2.725l2.911,1.118a1.2,1.2,0,0,1,.747.89,17.139,17.139,0,0,0,2.626,6.307,1.2,1.2,0,0,1,.1,1.163l-1.267,2.835L23.5,36.308l2.853-1.262a1.211,1.211,0,0,1,1.16.1,17.314,17.314,0,0,0,6.328,2.614,1.206,1.206,0,0,1,.895.75l1.118,2.9h2.734l1.121-2.9a1.206,1.206,0,0,1,.893-.745,17.319,17.319,0,0,0,6.328-2.614Z" transform="translate(223.889 3982.416)" fill="#821ffd" fill-rule="evenodd"/>
  </g>
</svg>
