<svg xmlns="http://www.w3.org/2000/svg" width="44.028" height="70.37" viewBox="0 0 44.028 70.37">
  <g id="layout_3_" data-name="layout (3)" transform="translate(-11.515 -2.25)">
    <path id="Path_28615" data-name="Path 28615" d="M51.8,2.25H15.254a3.734,3.734,0,0,0-3.739,3.739V68.882a3.734,3.734,0,0,0,3.739,3.739H51.8a3.743,3.743,0,0,0,3.739-3.739V5.989A3.743,3.743,0,0,0,51.8,2.25ZM28.674,66.038a1.065,1.065,0,0,1,1.066-1.066h7.577a1.066,1.066,0,0,1,0,2.132H29.74A1.056,1.056,0,0,1,28.674,66.038Zm-15.027-5.5V12.87H53.41V60.537ZM38.028,8.093a1.074,1.074,0,0,1-1.066,1.066h-.341a1.066,1.066,0,1,1,0-2.132h.341A1.074,1.074,0,0,1,38.028,8.093Zm-4.592,0A1.074,1.074,0,0,1,32.37,9.159H30.081a1.066,1.066,0,0,1,0-2.132H32.37A1.074,1.074,0,0,1,33.436,8.093Z" transform="translate(0 0)" fill="#ff4591"/>
    <path id="Path_28616" data-name="Path 28616" d="M17.53,28.074H29.772a1.39,1.39,0,0,0,1.39-1.39V14.8a1.39,1.39,0,0,0-1.39-1.39H17.53a1.39,1.39,0,0,0-1.39,1.39V26.684A1.389,1.389,0,0,0,17.53,28.074Z" transform="translate(1.803 4.803)" fill="#821ffd"/>
    <path id="Path_28617" data-name="Path 28617" d="M31.994,16.043h9.359a1.042,1.042,0,1,0,0-2.085H31.994a1.042,1.042,0,1,0,0,2.085Z" transform="translate(8.562 4.948)" fill="#821ffd"/>
    <path id="Path_28618" data-name="Path 28618" d="M41.353,17.938H31.994a1.042,1.042,0,1,0,0,2.085h9.359a1.042,1.042,0,1,0,0-2.085Z" transform="translate(8.562 6.63)" fill="#821ffd"/>
    <path id="Path_28619" data-name="Path 28619" d="M41.353,21.918H31.994a1.042,1.042,0,1,0,0,2.085h9.359a1.042,1.042,0,1,0,0-2.085Z" transform="translate(8.562 8.312)" fill="#821ffd"/>
    <path id="Path_28620" data-name="Path 28620" d="M48.374,27.931H16.463a1.043,1.043,0,1,0,0,2.085H48.374a1.043,1.043,0,1,0,0-2.085Z" transform="translate(1.51 10.853)" fill="#821ffd"/>
    <path id="Path_28621" data-name="Path 28621" d="M22.171,33.237H17.529a1.39,1.39,0,0,0-1.39,1.39v4.642a1.39,1.39,0,0,0,1.39,1.39h4.642a1.39,1.39,0,0,0,1.39-1.39V34.627A1.389,1.389,0,0,0,22.171,33.237Z" transform="translate(1.802 13.184)" fill="#821ffd"/>
    <path id="Path_28622" data-name="Path 28622" d="M30.65,33.237H26.008a1.39,1.39,0,0,0-1.39,1.39v4.642a1.39,1.39,0,0,0,1.39,1.39H30.65a1.39,1.39,0,0,0,1.39-1.39V34.627A1.389,1.389,0,0,0,30.65,33.237Z" transform="translate(5.611 13.184)" fill="#821ffd"/>
    <path id="Path_28623" data-name="Path 28623" d="M39.128,33.237H34.486a1.39,1.39,0,0,0-1.39,1.39v4.642a1.39,1.39,0,0,0,1.39,1.39h4.642a1.39,1.39,0,0,0,1.39-1.39V34.627A1.389,1.389,0,0,0,39.128,33.237Z" transform="translate(9.398 13.184)" fill="#821ffd"/>
  </g>
</svg>
