<svg xmlns="http://www.w3.org/2000/svg" width="71.342" height="70.328" viewBox="0 0 71.342 70.328">
  <g id="audit" transform="translate(0 -2)">
    <g id="Group_31194" data-name="Group 31194" transform="translate(0 2)">
      <path id="Path_28719" data-name="Path 28719" d="M0,99.138v36.648a1.065,1.065,0,0,0,1.064,1.064H35.171a15.919,15.919,0,0,1,.7-8.891H26.73v-4.966H38.911c4.158-4.589,10.005-6.059,16.686-3.239V99.138Zm16.209,31.1a2.506,2.506,0,0,1-3.457-.312L9.46,126.071l3.777-3.224,1.716,2.011,4.862-3.965,3.138,3.848Zm0-15.041a2.506,2.506,0,0,1-3.457-.312L9.46,111.03l3.777-3.224,1.716,2.011,4.862-3.965,3.138,3.848Zm30.076-2.283H26.729v-4.966H46.285v4.966Z" transform="translate(0 -84.825)" fill="#ff4591"/>
      <path id="Path_28720" data-name="Path 28720" d="M55.6,10.362v-9.3A1.065,1.065,0,0,0,54.532,0H1.064A1.065,1.065,0,0,0,0,1.064v9.3ZM15.3,2.815h4.633V7.781H15.3Zm-11.076,0H8.86V7.781H4.226Z" transform="translate(0 0)" fill="#821ffd"/>
    </g>
    <g id="Group_31195" data-name="Group 31195" transform="translate(38.771 39.331)">
      <path id="Path_28721" data-name="Path 28721" d="M385.682,386.84l6.378,7.953a5.024,5.024,0,0,0,2.676,1.836,3.016,3.016,0,0,0,2.754-.851,3.3,3.3,0,0,0,.6-3.7h0a6.055,6.055,0,0,0-1.562-2.034l-7.6-6.4A15.706,15.706,0,0,1,385.682,386.84Z" transform="translate(-365.838 -363.694)" fill="#821ffd"/>
      <path id="Path_28722" data-name="Path 28722" d="M267.924,254.579a10.594,10.594,0,1,0,10.593,10.594A10.594,10.594,0,0,0,267.924,254.579Zm.451,15.525a2.506,2.506,0,0,1-3.345.284l-5.051-3.9,3.035-3.93,3.248,2.509,5.953-6.473,3.655,3.362Z" transform="translate(-257.331 -254.579)" fill="#821ffd"/>
    </g>
  </g>
</svg>
