<svg xmlns="http://www.w3.org/2000/svg" width="65.373" height="70.371" viewBox="0 0 65.373 70.371">
  <g id="nft_3_" data-name="nft (3)" transform="translate(-3.074 -1.003)">
    <path id="Path_28723" data-name="Path 28723" d="M4,25.923V48.48a12.557,12.557,0,0,0,6.369,10.907L30.484,70.768a12.808,12.808,0,0,0,12.4,0L63,59.387a12.559,12.559,0,0,0,6.37-10.907V25.923A12.555,12.555,0,0,0,63,15.015L42.889,3.633a12.6,12.6,0,0,0-12.408,0L10.366,15.014A12.558,12.558,0,0,0,4,25.923ZM12.226,18.3,32.34,6.916a8.866,8.866,0,0,1,8.691,0L61.146,18.3A8.778,8.778,0,0,1,65.6,25.923V48.48A8.778,8.778,0,0,1,61.146,56.1L41.031,67.486a8.867,8.867,0,0,1-8.691,0L12.226,56.1A8.781,8.781,0,0,1,7.772,48.48V25.923A8.781,8.781,0,0,1,12.226,18.3Z" transform="translate(-0.926 -0.997)" fill="#821ffd"/>
    <path id="Path_28724" data-name="Path 28724" d="M12.092,51.378,31.652,62.446a6.177,6.177,0,0,0,6.043,0L57.256,51.378a6.091,6.091,0,0,0,3.091-5.291V24.151a6.089,6.089,0,0,0-3.091-5.292L37.7,7.79a6.166,6.166,0,0,0-6.043,0L12.092,18.859A6.088,6.088,0,0,0,9,24.151V46.087a6.089,6.089,0,0,0,3.092,5.291ZM44.454,24.116h9.78a1.223,1.223,0,1,1,0,2.445H50.566V44.9a1.223,1.223,0,0,1-2.445,0V26.561H44.454a1.223,1.223,0,0,1,0-2.445Zm-14.67,1.223a1.223,1.223,0,0,1,1.223-1.223h9.78a1.223,1.223,0,0,1,0,2.445H32.228V33.9h4.89a1.223,1.223,0,1,1,0,2.445h-4.89V44.9a1.223,1.223,0,1,1-2.445,0Zm-15.893,0a1.223,1.223,0,0,1,2.317-.546L23.67,39.72V25.338a1.223,1.223,0,1,1,2.445,0V44.9a1.223,1.223,0,0,1-.941,1.191,1.3,1.3,0,0,1-.281.032,1.223,1.223,0,0,1-1.094-.676L16.335,30.517V44.9a1.223,1.223,0,1,1-2.445,0Z" transform="translate(1.087 1.085)" fill="#ff4591"/>
  </g>
</svg>
